<svg width="9" height="9" viewBox="0 0 11 9" fill="none"
                                                    xmlns="http://www.w3.org/2000/svg">
                                                    <path
                                                        d="M3.88955 8.15426C3.62436 8.1542 3.37004 8.04881 3.18255 7.86126L0.52055 5.19826C0.342895 5.00881 0.245915 4.75767 0.250132 4.49799C0.254349 4.23831 0.359431 3.99045 0.543144 3.80687C0.726856 3.62329 0.974786 3.51838 1.23447 3.51435C1.49416 3.51031 1.74522 3.60747 1.93455 3.78526L3.88955 5.74026L9.03855 0.591259C9.22715 0.409101 9.47975 0.308306 9.74195 0.310585C10.0041 0.312863 10.255 0.418032 10.4404 0.60344C10.6258 0.788849 10.7309 1.03966 10.7332 1.30186C10.7355 1.56405 10.6347 1.81666 10.4525 2.00526L4.59655 7.86126C4.40906 8.04881 4.15475 8.1542 3.88955 8.15426Z"
                                                        fill="white" />
                                                </svg>