<svg width="185" height="28" viewBox="0 0 185 28" fill="none" xmlns="http://www.w3.org/2000/svg">
                        <path
                            d="M77.8715 2.3501H79.0715C79.2307 2.3501 79.3833 2.41331 79.4958 2.52583C79.6083 2.63835 79.6715 2.79097 79.6715 2.9501V4.3771C79.6715 4.53623 79.6083 4.68884 79.4958 4.80136C79.3833 4.91388 79.2307 4.9771 79.0715 4.9771H77.8715C77.7124 4.9771 77.5598 4.91388 77.4473 4.80136C77.3348 4.68884 77.2715 4.53623 77.2715 4.3771V2.9501C77.2715 2.79097 77.3348 2.63835 77.4473 2.52583C77.5598 2.41331 77.7124 2.3501 77.8715 2.3501ZM8.10053 6.5801C9.11771 6.56362 10.1277 6.75354 11.0694 7.13837C12.0111 7.5232 12.865 8.09496 13.5795 8.8191C14.9874 10.3165 15.7552 12.3042 15.7195 14.3591C15.7546 16.4133 14.9869 18.4002 13.5795 19.8971C12.8653 20.6218 12.0115 21.1942 11.0698 21.5795C10.128 21.9649 9.11793 22.1552 8.10053 22.1391C6.65708 22.1485 5.23999 21.7525 4.01053 20.9961C3.41599 20.6265 2.87723 20.1739 2.41053 19.6521V26.1521C2.41053 26.3112 2.34732 26.4638 2.2348 26.5764C2.12227 26.6889 1.96966 26.7521 1.81053 26.7521H0.994531C0.835401 26.7521 0.682789 26.6889 0.570267 26.5764C0.457745 26.4638 0.394531 26.3112 0.394531 26.1521V7.4521C0.394531 7.29297 0.457745 7.14035 0.570267 7.02783C0.682789 6.91531 0.835401 6.8521 0.994531 6.8521H1.62753C1.78209 6.85194 1.93075 6.91144 2.04253 7.01818C2.1543 7.12493 2.22058 7.27069 2.22753 7.4251L2.30653 9.1901C2.78991 8.62423 3.35636 8.135 3.98653 7.7391C5.22055 6.97501 6.64514 6.57467 8.09653 6.5841L8.10053 6.5801ZM8.05253 20.1391C8.80195 20.1536 9.54661 20.0171 10.2421 19.7375C10.9376 19.458 11.5696 19.0412 12.1005 18.5121C13.158 17.3913 13.7327 15.8997 13.7005 14.3591C13.7332 12.8178 13.1585 11.3254 12.1005 10.2041C11.5701 9.67546 10.9387 9.25897 10.2439 8.97945C9.54919 8.69994 8.80528 8.5631 8.05653 8.5771C7.30584 8.56626 6.56064 8.70648 5.86524 8.98942C5.16983 9.27236 4.53841 9.69224 4.00853 10.2241C2.94453 11.335 2.36199 12.821 2.38753 14.3591C2.36317 15.115 2.49217 15.868 2.76677 16.5727C3.04136 17.2774 3.45585 17.9192 3.98524 18.4593C4.51463 18.9995 5.14794 19.4268 5.84698 19.7155C6.54601 20.0042 7.29628 20.1483 8.05253 20.1391ZM51.8595 6.5801C53.3748 6.53976 54.8646 6.97571 56.1191 7.82657C57.3736 8.67743 58.3296 9.90034 58.8525 11.3231C58.8861 11.4138 58.8973 11.5112 58.8851 11.6072C58.8729 11.7031 58.8377 11.7947 58.7825 11.8741C58.7273 11.9534 58.6537 12.0182 58.568 12.0629C58.4824 12.1077 58.3872 12.1311 58.2905 12.1311H57.4585C57.3418 12.1311 57.2275 12.0971 57.1298 12.0331C57.0322 11.9692 56.9552 11.8781 56.9085 11.7711C56.4831 10.7949 55.7744 9.96891 54.8742 9.4C53.974 8.83108 52.9238 8.54546 51.8595 8.5801C51.1088 8.56926 50.3636 8.70948 49.6682 8.99242C48.9728 9.27536 48.3414 9.69524 47.8115 10.2271C46.7498 11.3384 46.1689 12.8234 46.1945 14.3601C46.1702 15.116 46.2992 15.869 46.5738 16.5737C46.8484 17.2784 47.2629 17.9202 47.7922 18.4603C48.3216 19.0005 48.9549 19.4278 49.654 19.7165C50.353 20.0052 51.1033 20.1493 51.8595 20.1401C52.9356 20.1524 53.9928 19.8579 54.9075 19.2911C55.8044 18.7107 56.5123 17.8811 56.9445 16.9041C56.9921 16.7992 57.069 16.7102 57.1658 16.6478C57.2626 16.5854 57.3753 16.5522 57.4905 16.5521H58.3355C58.4328 16.5522 58.5286 16.5759 58.6146 16.6211C58.7007 16.6664 58.7744 16.732 58.8295 16.8121C58.8846 16.8922 58.9193 16.9845 58.9308 17.081C58.9423 17.1775 58.9302 17.2753 58.8955 17.3661C58.3615 18.7926 57.3978 20.0181 56.1375 20.8734C54.8772 21.7288 53.3824 22.1717 51.8595 22.1411C50.8429 22.1519 49.8343 21.9596 48.8929 21.5755C47.9516 21.1913 47.0964 20.6231 46.3775 19.9041C44.9334 18.4232 44.1367 16.4294 44.1625 14.3611C44.1336 13.3385 44.3123 12.3207 44.6877 11.3691C45.0632 10.4175 45.6277 9.55196 46.3472 8.82468C47.0666 8.09741 47.926 7.52354 48.8734 7.13774C49.8209 6.75195 50.8367 6.56225 51.8595 6.5801ZM67.5595 6.5801C68.5523 6.5671 69.5372 6.75875 70.4526 7.1431C71.3681 7.52746 72.1946 8.09628 72.8805 8.8141C74.2432 10.2982 74.9844 12.2486 74.9515 14.2631C74.9515 14.3921 74.9445 14.5341 74.9375 14.6441C74.9286 14.7971 74.8615 14.9409 74.7499 15.0459C74.6383 15.151 74.4908 15.2094 74.3375 15.2091H62.0865C62.2146 16.5661 62.8479 17.8255 63.8609 18.7375C64.8739 19.6495 66.1926 20.1477 67.5555 20.1331C68.5904 20.1498 69.6082 19.8683 70.4874 19.3221C71.3666 18.776 72.07 17.9883 72.5135 17.0531C72.5641 16.9554 72.6406 16.8735 72.7346 16.8164C72.8286 16.7592 72.9365 16.7291 73.0465 16.7291H73.9165C74.0178 16.7292 74.1174 16.7549 74.2061 16.8039C74.2947 16.8528 74.3695 16.9234 74.4235 17.0091C74.4777 17.0949 74.5092 17.193 74.5151 17.2942C74.5211 17.3955 74.5013 17.4966 74.4575 17.5881C73.8892 18.9461 72.9295 20.1041 71.7007 20.9148C70.4719 21.7254 69.0296 22.152 67.5575 22.1401C66.5558 22.1502 65.5624 21.9562 64.638 21.5701C63.7136 21.184 62.8775 20.6137 62.1805 19.8941C60.7678 18.3931 59.9949 16.4011 60.0255 14.3401C59.9974 12.2891 60.7709 10.3082 62.1815 8.8191C62.8794 8.10194 63.7154 7.53376 64.6391 7.14892C65.5628 6.76408 66.5549 6.57057 67.5555 6.5801H67.5595ZM72.8815 13.2351C72.7312 11.9356 72.1033 10.7384 71.1199 9.87577C70.1364 9.01318 68.8675 8.54677 67.5595 8.5671C66.1474 8.5512 64.7845 9.0856 63.7595 10.0571C62.8901 10.9146 62.3191 12.0286 62.1305 13.2351H72.8815ZM98.9815 6.5801C100.01 6.55593 101.033 6.74053 101.989 7.12274C102.944 7.50495 103.812 8.07685 104.54 8.80389C105.269 9.53093 105.842 10.398 106.226 11.3528C106.61 12.3076 106.796 13.3303 106.774 14.3591C106.796 15.3879 106.61 16.4106 106.226 17.3654C105.842 18.3202 105.269 19.1873 104.54 19.9143C103.812 20.6413 102.944 21.2132 101.989 21.5955C101.033 21.9777 100.01 22.1623 98.9815 22.1381C97.9528 22.1623 96.9298 21.9777 95.9743 21.5955C95.0189 21.2132 94.1509 20.6413 93.4226 19.9143C92.6943 19.1873 92.121 18.3202 91.7372 17.3654C91.3534 16.4106 91.1671 15.3879 91.1895 14.3591C91.1743 13.3296 91.3641 12.3074 91.7478 11.352C92.1315 10.3966 92.7015 9.52707 93.4245 8.7941C94.1587 8.0784 95.0268 7.51447 95.9791 7.13457C96.9314 6.75467 97.9493 6.56625 98.9745 6.5801H98.9815ZM98.9815 20.1391C99.7427 20.1513 100.499 20.0124 101.206 19.7303C101.913 19.4483 102.557 19.0288 103.101 18.4961C103.632 17.948 104.05 17.3005 104.33 16.5906C104.611 15.8807 104.749 15.1223 104.736 14.3591C104.749 13.5959 104.611 12.8375 104.33 12.1276C104.05 11.4177 103.632 10.7701 103.101 10.2221C102.556 9.68867 101.911 9.26873 101.203 8.98668C100.495 8.70463 99.7377 8.56609 98.9755 8.5791C98.2138 8.56537 97.4569 8.70289 96.7486 8.98372C96.0404 9.26454 95.3949 9.68308 94.8495 10.2151C94.3175 10.7639 93.8991 11.4124 93.6185 12.1234C93.3379 12.8344 93.2006 13.5939 93.2145 14.3581C93.2019 15.1217 93.3405 15.8803 93.6223 16.5901C93.9041 17.3 94.3236 17.9471 94.8565 18.4941C95.4 19.0271 96.0438 19.4469 96.7507 19.7293C97.4576 20.0117 98.2134 20.151 98.9745 20.1391H98.9815ZM24.7595 6.5801C25.8484 6.55826 26.929 6.77484 27.9253 7.21464C28.9217 7.65445 29.8099 8.30684 30.5275 9.1261L30.5775 7.4311C30.5822 7.27511 30.6475 7.12708 30.7595 7.01842C30.8715 6.90976 31.0215 6.84903 31.1775 6.8491H31.8775C31.9563 6.8491 32.0343 6.86462 32.1071 6.89477C32.1799 6.92492 32.2461 6.96912 32.3018 7.02483C32.3575 7.08055 32.4017 7.14669 32.4319 7.21949C32.462 7.29228 32.4775 7.3703 32.4775 7.4491V21.2701C32.4775 21.4292 32.4143 21.5818 32.3018 21.6944C32.1893 21.8069 32.0367 21.8701 31.8775 21.8701H31.1605C31.004 21.8701 30.8536 21.809 30.7415 21.6997C30.6294 21.5904 30.5644 21.4416 30.5605 21.2851L30.5165 19.6041C29.799 20.4199 28.9122 21.0694 27.9179 21.5072C26.9236 21.945 25.8458 22.1607 24.7595 22.1391C23.7463 22.1509 22.7411 21.9591 21.8034 21.5752C20.8657 21.1913 20.0146 20.623 19.3005 19.9041C17.869 18.4177 17.0816 16.4266 17.1095 14.3631C17.0801 12.2976 17.8675 10.304 19.3005 8.8161C20.0145 8.09708 20.8656 7.5287 21.8033 7.14461C22.741 6.76053 23.7463 6.56857 24.7595 6.5801ZM24.8005 20.1391C25.5493 20.1531 26.2932 20.0163 26.9879 19.7367C27.6827 19.4572 28.3141 19.0407 28.8445 18.5121C29.902 17.3913 30.4767 15.8997 30.4445 14.3591C30.4767 12.8185 29.902 11.3269 28.8445 10.2061C28.314 9.67764 27.6826 9.26134 26.9878 8.98199C26.2931 8.70265 25.5492 8.56597 24.8005 8.5801C24.0443 8.57093 23.294 8.71504 22.595 9.00373C21.8959 9.29243 21.2626 9.71974 20.7332 10.2599C20.2038 10.8 19.7894 11.4418 19.5148 12.1465C19.2402 12.8512 19.1112 13.6042 19.1355 14.3601C19.1116 15.8985 19.6959 17.3842 20.7615 18.4941C21.2905 19.0245 21.9205 19.4434 22.6143 19.7259C23.3081 20.0085 24.0515 20.149 24.8005 20.1391ZM31.2715 11.9861V11.6251C31.2451 11.6347 31.218 11.6423 31.1905 11.6481L31.1545 11.6541C31.1985 11.7634 31.2389 11.8741 31.2755 11.9861H31.2715ZM31.2715 17.0991V16.7331C31.2349 16.8464 31.1952 16.9584 31.1525 17.0691L31.1875 17.0751C31.2174 17.0809 31.2468 17.0889 31.2755 17.0991H31.2715ZM42.5935 6.8101H43.7835C43.9427 6.8101 44.0953 6.87331 44.2078 6.98583C44.3203 7.09835 44.3835 7.25097 44.3835 7.4101V8.1971C44.3835 8.35623 44.3203 8.50884 44.2078 8.62136C44.0953 8.73388 43.9427 8.7971 43.7835 8.7971H42.5425C41.9713 8.78155 41.4034 8.88967 40.8778 9.11406C40.3523 9.33844 39.8814 9.67378 39.4975 10.0971C38.7034 11.0455 38.2855 12.2527 38.3235 13.4891V21.2701C38.3235 21.4292 38.2603 21.5818 38.1478 21.6944C38.0353 21.8069 37.8827 21.8701 37.7235 21.8701H36.9005C36.7414 21.8701 36.5888 21.8069 36.4763 21.6944C36.3637 21.5818 36.3005 21.4292 36.3005 21.2701V7.4481C36.3005 7.28897 36.3637 7.13635 36.4763 7.02383C36.5888 6.91131 36.7414 6.8481 36.9005 6.8481H37.5465C37.7013 6.84795 37.8501 6.90759 37.9619 7.01454C38.0737 7.1215 38.1398 7.26752 38.1465 7.4221L38.2005 8.6741C38.7573 8.06779 39.4374 7.58773 40.1951 7.26621C40.9529 6.94469 41.7707 6.78917 42.5935 6.8101ZM89.6125 6.8101H90.8005C90.9597 6.8101 91.1123 6.87331 91.2248 6.98583C91.3373 7.09835 91.4005 7.25097 91.4005 7.4101V8.1971C91.4005 8.35623 91.3373 8.50884 91.2248 8.62136C91.1123 8.73388 90.9597 8.7971 90.8005 8.7971H89.5615C88.9903 8.78155 88.4224 8.88967 87.8969 9.11406C87.3713 9.33844 86.9004 9.67378 86.5165 10.0971C85.7224 11.0455 85.3045 12.2527 85.3425 13.4891V21.2701C85.3425 21.4292 85.2793 21.5818 85.1668 21.6944C85.0543 21.8069 84.9017 21.8701 84.7425 21.8701H83.9235C83.7644 21.8701 83.6118 21.8069 83.4993 21.6944C83.3867 21.5818 83.3235 21.4292 83.3235 21.2701V7.4481C83.3235 7.28897 83.3867 7.13635 83.4993 7.02383C83.6118 6.91131 83.7644 6.8481 83.9235 6.8481H84.5695C84.7243 6.84795 84.8731 6.90759 84.9849 7.01454C85.0967 7.1215 85.1628 7.26752 85.1695 7.4221L85.2225 8.6741C85.779 8.06805 86.4588 7.58814 87.2162 7.26663C87.9736 6.94512 88.79 6.78945 89.6125 6.8101ZM78.0625 6.8481H78.8815C79.0407 6.8481 79.1933 6.91131 79.3058 7.02383C79.4183 7.13635 79.4815 7.28897 79.4815 7.4481V21.2701C79.4815 21.4292 79.4183 21.5818 79.3058 21.6944C79.1933 21.8069 79.0407 21.8701 78.8815 21.8701H78.0625C77.9034 21.8701 77.7508 21.8069 77.6383 21.6944C77.5257 21.5818 77.4625 21.4292 77.4625 21.2701V7.4481C77.4625 7.28897 77.5257 7.13635 77.6383 7.02383C77.7508 6.91131 77.9034 6.8481 78.0625 6.8481Z"
                            fill="white" />
                        <path
                            d="M121.381 7.263H125.531C125.697 7.263 125.856 7.32875 125.973 7.44574C126.09 7.56273 126.156 7.72144 126.156 7.88702V19.716C126.156 19.8436 126.205 19.9664 126.292 20.0594C126.379 20.1523 126.499 20.2083 126.626 20.216C126.692 20.2166 126.756 20.204 126.816 20.1789C126.876 20.1538 126.931 20.1167 126.976 20.0699C127.021 20.0232 127.057 19.9677 127.08 19.9069C127.103 19.846 127.114 19.7811 127.111 19.716V17.0031C127.111 16.9639 127.119 16.9252 127.134 16.8891C127.149 16.853 127.172 16.8203 127.2 16.793C127.228 16.7656 127.261 16.7441 127.297 16.7297C127.333 16.7153 127.372 16.7082 127.411 16.709H127.859C127.899 16.7082 127.937 16.7153 127.974 16.7297C128.01 16.7441 128.043 16.7656 128.071 16.793C128.099 16.8203 128.121 16.853 128.136 16.8891C128.152 16.9252 128.159 16.9639 128.159 17.0031V19.66C128.159 21.233 126.923 22.33 124.534 22.33C122.341 22.33 120.767 21.43 120.767 19.125V17.893C119.979 20.648 118.18 22.334 115.847 22.334C112.194 22.334 109.691 19.157 109.691 14.52C109.691 9.88302 112.191 6.70605 115.847 6.70605C118.18 6.70605 119.947 8.39202 120.767 11.119V7.88306C120.769 7.72005 120.834 7.56394 120.948 7.44812C121.063 7.3323 121.218 7.26586 121.381 7.263ZM120.728 14.515C120.676 13.9704 120.467 13.4526 120.127 13.0245C119.786 12.5964 119.328 12.2765 118.809 12.1036C118.29 11.9308 117.732 11.9125 117.203 12.0509C116.673 12.1893 116.196 12.4785 115.828 12.8834C115.46 13.2882 115.217 13.7912 115.13 14.3313C115.042 14.8714 115.113 15.4253 115.335 15.9256C115.556 16.4259 115.918 16.8512 116.376 17.1497C116.835 17.4482 117.37 17.6071 117.917 17.6071C118.309 17.6018 118.696 17.516 119.053 17.355C119.41 17.1941 119.731 16.9615 119.994 16.6715C120.258 16.3816 120.459 16.0405 120.585 15.6695C120.712 15.2985 120.76 14.9056 120.728 14.515Z"
                            fill="white" />
                        <path
                            d="M162.273 17.345C162.366 17.3568 162.455 17.3894 162.533 17.4406C162.611 17.4917 162.677 17.5599 162.725 17.6401C162.773 17.7203 162.803 17.8104 162.811 17.9036C162.819 17.9967 162.806 18.0906 162.773 18.178C161.796 20.626 158.902 22.33 155.473 22.33C150.686 22.33 147.379 19.153 147.379 14.46C147.379 9.85102 150.779 6.703 155.587 6.703C160.395 6.703 163.54 9.85203 163.54 14.517C163.54 14.75 163.54 15.085 163.52 15.387C163.513 15.5466 163.445 15.6974 163.33 15.808C163.215 15.9187 163.062 15.9806 162.902 15.981H152.945C153.037 16.6601 153.372 17.2828 153.889 17.7328C154.406 18.1828 155.069 18.4295 155.754 18.427C156.214 18.4465 156.671 18.3416 157.077 18.1234C157.483 17.9052 157.822 17.5817 158.06 17.187C158.121 17.0816 158.212 16.9968 158.321 16.9434C158.43 16.8899 158.553 16.8703 158.674 16.887L162.273 17.345ZM158.08 13.139C158.056 12.4592 157.772 11.8144 157.286 11.3384C156.8 10.8624 156.149 10.5916 155.469 10.582C154.092 10.582 153.193 11.594 152.912 13.139H158.08Z"
                            fill="white" />
                        <path
                            d="M130.826 10.3131L135.889 12.4181C136.002 12.465 136.1 12.5447 136.168 12.6471C136.237 12.7495 136.274 12.8699 136.274 12.9931V26.6451C136.274 26.7484 136.248 26.8501 136.199 26.9411C136.15 27.0321 136.079 27.1095 135.993 27.1665C135.907 27.2235 135.808 27.2582 135.705 27.2675C135.602 27.2769 135.499 27.2606 135.404 27.2201L130.153 25.0441C130.039 24.9966 129.943 24.9168 129.875 24.8148C129.807 24.7127 129.77 24.5928 129.77 24.4701V7.93109C129.77 7.76913 129.834 7.61386 129.949 7.49933C130.063 7.3848 130.219 7.32033 130.381 7.32007H134.554C134.716 7.32007 134.871 7.38444 134.986 7.49902C135.1 7.61361 135.165 7.76904 135.165 7.93109V10.2441C135.497 9.23534 136.138 8.35653 136.997 7.73175C137.856 7.10697 138.889 6.76778 139.952 6.76208C143.523 6.76208 145.995 9.93711 145.995 14.5761C145.995 19.2151 143.551 22.3901 139.952 22.3901C139.44 22.3927 138.932 22.3134 138.446 22.1551V10.9231C138.445 10.8428 138.429 10.7633 138.398 10.6892C138.367 10.6151 138.322 10.5478 138.265 10.4913C138.208 10.4347 138.14 10.39 138.066 10.3596C137.992 10.3292 137.912 10.3137 137.832 10.3141L130.826 10.3131Z"
                            fill="white" />
                        <path
                            d="M155.309 0.397078L151.151 2.68407C151.056 2.7363 150.976 2.81314 150.921 2.90654C150.865 2.99993 150.836 3.10648 150.836 3.21507V5.41508C150.836 5.52056 150.864 5.62417 150.916 5.71574C150.968 5.80731 151.044 5.88367 151.135 5.93727C151.225 5.99087 151.329 6.01986 151.434 6.02141C151.539 6.02295 151.644 5.99697 151.736 5.94606L155.315 3.97206C155.405 3.92392 155.505 3.89873 155.606 3.89873C155.708 3.89873 155.808 3.92392 155.898 3.97206L159.478 5.94108C159.57 5.99426 159.675 6.02199 159.781 6.0215C159.887 6.02101 159.991 5.99229 160.083 5.93828C160.175 5.88426 160.25 5.8069 160.302 5.71409C160.354 5.62128 160.38 5.51636 160.378 5.41008V3.21907C160.379 3.11052 160.35 3.0038 160.295 2.91029C160.24 2.81678 160.16 2.73998 160.065 2.68806L155.902 0.401076C155.812 0.349094 155.71 0.321394 155.606 0.320692C155.502 0.319991 155.4 0.346315 155.309 0.397078Z"
                            fill="white" />
                        <path
                            d="M164.825 8.03403V4.25204C164.825 4.15688 164.848 4.06305 164.89 3.978C164.933 3.89295 164.995 3.81903 165.071 3.76205L168.851 0.933044C168.957 0.854489 169.085 0.811744 169.217 0.811035H173.217C173.379 0.811035 173.535 0.875406 173.649 0.98999C173.764 1.10457 173.828 1.25998 173.828 1.42203V15.3481C173.829 15.4285 173.813 15.5083 173.783 15.5828C173.752 15.6573 173.707 15.725 173.65 15.782C173.594 15.8391 173.526 15.8844 173.452 15.9153C173.377 15.9461 173.298 15.9621 173.217 15.9621H169.055C168.892 15.9621 168.736 15.8973 168.621 15.7822C168.506 15.667 168.441 15.5109 168.441 15.3481V6.59406L165.797 8.53503C165.706 8.60238 165.597 8.64286 165.484 8.65192C165.371 8.66097 165.257 8.63825 165.156 8.5863C165.055 8.53436 164.97 8.45526 164.912 8.35788C164.853 8.2605 164.823 8.14868 164.824 8.03503L164.825 8.03403Z"
                            fill="white" />
                        <path
                            d="M175.359 8.03403V4.25204C175.36 4.15689 175.382 4.06309 175.425 3.97806C175.467 3.89302 175.529 3.81908 175.605 3.76205L179.385 0.933044C179.491 0.854237 179.619 0.811463 179.751 0.811035H183.759C183.921 0.811035 184.077 0.875406 184.191 0.98999C184.306 1.10457 184.37 1.25998 184.37 1.42203V15.3481C184.371 15.4285 184.355 15.5083 184.325 15.5828C184.294 15.6573 184.249 15.725 184.192 15.782C184.136 15.8391 184.068 15.8844 183.994 15.9153C183.92 15.9461 183.84 15.9621 183.759 15.9621H179.589C179.508 15.9626 179.428 15.947 179.353 15.9163C179.278 15.8855 179.209 15.8402 179.152 15.7829C179.094 15.7256 179.049 15.6575 179.018 15.5826C178.987 15.5076 178.971 15.4272 178.971 15.346V6.59406L176.332 8.53503C176.241 8.60199 176.132 8.64214 176.019 8.651C175.906 8.65986 175.793 8.63708 175.692 8.58521C175.591 8.53333 175.506 8.45439 175.447 8.35724C175.389 8.26008 175.358 8.14853 175.359 8.03503V8.03403Z"
                            fill="white" />
                    </svg>