<svg width="19" height="27" viewBox="0 0 19 27" fill="none" xmlns="http://www.w3.org/2000/svg">
    <path d="M11.4436 5.294C11.4436 4.66444 11.3196 4.04105 11.0787 3.45942C10.8378 2.87778 10.4846 2.34929 10.0395 1.90413C9.59431 1.45897 9.06583 1.10584 8.48419 0.864922C7.90256 0.624 7.27917 0.5 6.64961 0.5C6.02005 0.5 5.39666 0.624 4.81502 0.864922C4.23339 1.10584 3.7049 1.45897 3.25974 1.90413C2.81457 2.34929 2.46145 2.87778 2.22053 3.45942C1.97961 4.04105 1.85561 4.66444 1.85561 5.294V16.066C0.854645 17.2018 0.311799 18.6692 0.332608 20.183C0.353514 21.8445 1.0282 23.4308 2.2105 24.5983C3.3928 25.7658 4.9875 26.4205 6.64911 26.4205C8.31071 26.4205 9.90541 25.7658 11.0877 24.5983C12.27 23.4308 12.9447 21.8445 12.9656 20.183C12.9864 18.6692 12.4436 17.2018 11.4426 16.066V5.294H11.4436ZM6.64961 24.864C5.42486 24.8585 4.25183 24.3696 3.38569 23.5036C2.51956 22.6377 2.0304 21.4648 2.02461 20.24C2.01838 19.0391 2.48543 17.8841 3.32461 17.025C3.4018 16.942 3.46157 16.8444 3.50039 16.7379C3.53921 16.6314 3.55628 16.5182 3.55061 16.405V5.294C3.55061 4.8869 3.63079 4.48379 3.78658 4.10768C3.94237 3.73157 4.17072 3.38983 4.45858 3.10197C4.74644 2.81411 5.08818 2.58576 5.46429 2.42997C5.8404 2.27418 6.24351 2.194 6.65061 2.194C7.05771 2.194 7.46082 2.27418 7.83693 2.42997C8.21304 2.58576 8.55478 2.81411 8.84264 3.10197C9.1305 3.38983 9.35884 3.73157 9.51463 4.10768C9.67042 4.48379 9.75061 4.8869 9.75061 5.294V16.4C9.75499 16.6092 9.83532 16.8097 9.97661 16.964C10.8158 17.8231 11.2828 18.9781 11.2766 20.179C11.2838 21.4137 10.8005 22.6007 9.93284 23.4792C9.06522 24.3577 7.8843 24.8558 6.64961 24.864Z" fill="#E84700"/>
    <path d="M8.11484 17.535V5.74502C8.11484 5.37107 7.96629 5.01243 7.70186 4.748C7.43744 4.48357 7.0788 4.33502 6.70484 4.33502C6.33089 4.33502 5.97225 4.48357 5.70782 4.748C5.4434 5.01243 5.29484 5.37107 5.29484 5.74502V17.535C4.82387 17.8008 4.43039 18.1849 4.15329 18.6493C3.8762 19.1137 3.72507 19.6423 3.71484 20.183C3.71484 20.9758 4.02976 21.736 4.5903 22.2966C5.15085 22.8571 5.91111 23.172 6.70384 23.172C7.49658 23.172 8.25684 22.8571 8.81738 22.2966C9.37793 21.736 9.69284 20.9758 9.69284 20.183C9.67106 19.6452 9.51532 19.1213 9.23975 18.6588C8.96419 18.1964 8.57752 17.8101 8.11484 17.535Z" fill="#E84700"/>
    <path d="M14.1506 3.658H18.1506C18.3733 3.65267 18.5854 3.56183 18.7429 3.40431C18.9004 3.2468 18.9913 3.0347 18.9966 2.812C18.9913 2.58998 18.901 2.37845 18.7444 2.22104C18.5877 2.06363 18.3766 1.97234 18.1546 1.966H14.1546C13.9319 1.97134 13.7198 2.06218 13.5623 2.21969C13.4048 2.37721 13.3139 2.58931 13.3086 2.812C13.3139 3.03403 13.4042 3.24555 13.5608 3.40296C13.7175 3.56037 13.9286 3.65166 14.1506 3.658Z" fill="#E84700"/>
    <path d="M18.1546 5.97102H14.1546C13.9302 5.97102 13.715 6.06016 13.5564 6.21881C13.3977 6.37747 13.3086 6.59265 13.3086 6.81702C13.3086 7.0414 13.3977 7.25658 13.5564 7.41524C13.715 7.57389 13.9302 7.66302 14.1546 7.66302H18.1546C18.3773 7.65769 18.5894 7.56685 18.7469 7.40933C18.9044 7.25182 18.9953 7.03972 19.0006 6.81702C19.0026 6.70537 18.9821 6.59444 18.9403 6.49088C18.8985 6.38732 18.8363 6.29325 18.7573 6.21428C18.6784 6.13531 18.5843 6.07307 18.4807 6.03128C18.3772 5.98948 18.2663 5.96899 18.1546 5.97102Z" fill="#E84700"/>
    <path d="M18.1546 9.91901H14.1546C13.9302 9.91901 13.715 10.0081 13.5564 10.1668C13.3977 10.3254 13.3086 10.5406 13.3086 10.765C13.3086 10.9894 13.3977 11.2046 13.5564 11.3632C13.715 11.5219 13.9302 11.611 14.1546 11.611H18.1546C18.379 11.611 18.5942 11.5219 18.7528 11.3632C18.9115 11.2046 19.0006 10.9894 19.0006 10.765C19.0006 10.5406 18.9115 10.3254 18.7528 10.1668C18.5942 10.0081 18.379 9.91901 18.1546 9.91901Z" fill="#E84700"/>
    <path d="M18.1546 13.923H14.1546C13.9302 13.923 13.715 14.0121 13.5564 14.1708C13.3977 14.3294 13.3086 14.5446 13.3086 14.769C13.3086 14.9934 13.3977 15.2085 13.5564 15.3672C13.715 15.5259 13.9302 15.615 14.1546 15.615H18.1546C18.3773 15.6097 18.5894 15.5188 18.7469 15.3613C18.9044 15.2038 18.9953 14.9917 19.0006 14.769C19.0026 14.6573 18.9821 14.5464 18.9403 14.4428C18.8985 14.3393 18.8363 14.2452 18.7573 14.1662C18.6784 14.0873 18.5843 14.025 18.4807 13.9832C18.3772 13.9414 18.2663 13.921 18.1546 13.923Z" fill="#E84700"/>
</svg>